<?xml version="1.0" standalone="no"?>
<!DOCTYPE svg PUBLIC "-//W3C//DTD SVG 20010904//EN"
 "http://www.w3.org/TR/2001/REC-SVG-20010904/DTD/svg10.dtd">
<svg version="1.0" xmlns="http://www.w3.org/2000/svg"
 width="160.000000pt" height="160.000000pt" viewBox="0 0 160.000000 160.000000"
 preserveAspectRatio="xMidYMid meet">
<metadata>
Created by potrace 1.13, written by Peter Selinger 2001-2015
</metadata>
<g transform="translate(0.000000,160.000000) scale(0.080000,-0.080000)"
fill="#000000" stroke="none">
<path d="M0 1000 l0 -1000 1000 0 1000 0 0 1000 0 1000 -1000 0 -1000 0 0
-1000z m781 628 c-38 -89 -55 -180 -54 -293 1 -213 67 -369 218 -520 103 -103
168 -145 292 -188 103 -35 270 -48 362 -28 30 6 55 10 57 8 8 -8 -97 -121
-150 -162 -129 -99 -274 -148 -441 -148 -396 1 -708 313 -707 708 0 158 36
279 120 402 40 58 125 147 172 180 21 15 141 82 147 83 1 0 -6 -19 -16 -42z
m439 -107 c5 -11 26 -25 45 -31 l36 -12 -31 -34 c-16 -19 -30 -44 -30 -56 0
-21 -1 -21 -27 4 -16 15 -40 30 -55 33 -34 9 -35 20 -4 40 13 9 26 29 30 45 6
34 21 39 36 11z"/>
<path d="M514 715 c-10 -25 56 -122 129 -191 64 -61 157 -117 238 -143 56 -18
172 -30 186 -19 18 15 6 28 -25 28 -57 1 -170 31 -239 65 -90 44 -168 115
-228 205 -25 39 -48 70 -51 70 -2 0 -7 -7 -10 -15z"/>
<path d="M1198 398 c-46 -12 -51 -38 -9 -38 41 0 83 18 78 33 -5 16 -24 17
-69 5z"/>
</g>
</svg>
